<?xml version="1.0" encoding="UTF-8"?>
<!--Generator: Apple Native CoreSVG 341-->
<!DOCTYPE svg>

<svg version="1.1" xmlns="http://www.w3.org/2000/svg" xmlns:xlink="http://www.w3.org/1999/xlink"
       viewBox="0 0 509.948 509.999">
       <defs>
              <linearGradient id="gradient1" x1="5" y1="0.318881" x2="5" y2="509.999"
                     gradientUnits="userSpaceOnUse">
                     <stop offset="0" stop-color="#3f9bff" stop-opacity="1" />
                     <stop offset="1" stop-color="#007aff" stop-opacity="1" />
              </linearGradient>
       </defs>
       <g>
              <rect height="509.999" opacity="0" width="509.948" x="0" y="0" />
              <path
                     d="M509.945 255.159C509.945 395.601 395.547 509.999 254.84 509.999C114.397 509.999-7.10543e-15 395.601-7.10543e-15 255.159C-7.10543e-15 114.717 114.397 0.318881 254.84 0.318881C395.547 0.318881 509.945 114.717 509.945 255.159ZM94.81 176.42C94.81 203.157 108.375 223.995 130.445 232.495C137.242 235.252 140.162 239.978 139.735 246.991C139.411 253.646 139.357 259.453 139.357 263.816C139.357 304.313 121.547 310.449 126.862 328.681L142.12 385.35C144.834 396.255 151.484 401.678 161.265 401.678L174.697 401.678C187.987 401.678 195.539 395.347 195.539 383.279C195.539 375.088 188.738 367.696 176.091 365.571L176.091 335.38C176.091 323.253 178.648 315.705 186.353 303.377C208.598 311.823 222.552 314.218 239.94 314.218C260.556 314.218 282.714 310.979 294.375 307.681C297.403 317.894 300.437 329.648 300.437 341.798C300.437 356.115 298.576 370.979 298.576 382.738C298.576 395.347 305.54 401.678 318.938 401.678L333.489 401.678C346.779 401.678 354.332 394.817 354.332 383.279C354.332 373.762 349.331 367.696 338.539 366.048L338.539 352.66C338.539 284.458 387.14 303.593 388.73 219.675C411.168 217.874 427.226 203.569 427.226 192.458C427.226 176.356 410.854 160.038 391.406 146.115C387.312 132.241 379.613 121.179 374.076 121.179C368.438 121.179 359.516 131.642 354.823 147.111C344.724 156.887 336.532 168.911 330.358 180.292L325.396 188.292C321.2 196.944 317.431 201.719 311.748 201.719C262.329 201.719 244.076 195.02 198.097 195.02C176.503 195.02 162.574 202.47 154.232 211.991C149.716 217.571 146.424 218.847 138.508 215.927C123.342 210.347 113.022 195.457 113.022 176.42C113.022 151.317 133.231 133.713 161.844 133.713C172.744 133.713 183.806 135.789 196.939 141.157C209.895 146.467 215.945 128.732 204.265 124.006C188.905 117.788 174.923 115.182 161.844 115.182C122.185 115.182 94.81 140.378 94.81 176.42ZM390.929 171.051C394.055 172.018 395.846 175.419 394.933 178.334C393.965 181.514 390.775 183.093 387.915 182.391C384.47 181.478 382.89 178.553 383.593 175.373C384.506 172.194 387.485 170.138 390.929 171.051Z"
                     fill="url(#gradient1)" />
       </g>
</svg>